<?xml version="1.0" encoding="UTF-8"?>
<svg id="_レイヤー_2" data-name="レイヤー_2" xmlns="http://www.w3.org/2000/svg" viewBox="0 0 309.21 75.83">
  <defs>
    <style>
      .cls-1 {
        fill: #282b30;
      }

      .cls-2 {
        fill: #d00a41;
      }
    </style>
  </defs>
  <g id="_レイヤー_1-2" data-name="レイヤー_1">
    <g>
      <path class="cls-2" d="M39.12,13.66c.74,0,1.35-.62,1.35-1.36s-.6-1.36-1.35-1.36-1.37.61-1.37,1.36.62,1.36,1.37,1.36"/>
      <path class="cls-2" d="M34.55,14.08c.75,0,1.36-.61,1.36-1.36s-.61-1.37-1.36-1.37-1.35.62-1.35,1.37.61,1.36,1.35,1.36"/>
      <path class="cls-2" d="M43.67,14.08c.76,0,1.36-.61,1.36-1.36s-.6-1.37-1.36-1.37-1.36.62-1.36,1.37.62,1.36,1.36,1.36"/>
      <path class="cls-2" d="M65.05,32.31c.72-.23,1.11-.99.88-1.7-.23-.7-1-1.1-1.71-.86-.71.23-1.1.99-.87,1.7.23.71,1,1.09,1.71.86"/>
      <path class="cls-2" d="M64.13,26.41c-.23-.71-1.01-1.1-1.72-.87-.71.23-1.11,1-.88,1.71.23.72,1,1.11,1.71.87.71-.23,1.12-1,.88-1.72"/>
      <path class="cls-2" d="M65.22,34.19c-.72.23-1.11,1.03-.88,1.74.24.73,1,1.11,1.72.87.71-.23,1.11-.99.88-1.72-.23-.74-1.01-1.13-1.72-.9"/>
      <path class="cls-2" d="M39.12,21.81c-9.62,0-17.43,7.82-17.43,17.45s7.82,17.44,17.43,17.44,17.43-7.82,17.43-17.44-7.83-17.45-17.43-17.45M37.58,23.43l-14.28,14.3c.73-7.56,6.73-13.58,14.28-14.3M31.18,31.99v6.5h-6.46c1.38-1.38,4.29-4.33,6.46-6.5M23.3,40.8l14.28,14.29c-7.55-.72-13.55-6.75-14.28-14.29M38.37,53.71c-1.11-1.11-3.29-3.29-6.52-6.52h6.52v6.52ZM38.37,45.65h-8.05c-1.65-1.64-3.52-3.52-5.61-5.62h0s13.66,0,13.66,0v5.62ZM38.37,38.49h-5.65v-8.04s5.67-5.62,5.65-5.64v13.68ZM39.91,24.85c1.25,1.26,3.83,3.84,6.47,6.46h-6.47v-6.46ZM39.91,32.85h8.01c2.33,2.35,4.5,4.53,5.62,5.64h-13.62v-5.64ZM53.54,40.03c-1.31,1.3-3.88,3.87-6.5,6.49v-6.49h6.5ZM39.91,40.03h5.59v8.04c-2.29,2.28-4.42,4.43-5.59,5.6v-13.63ZM40.63,55.1c2.8-2.8,10.91-10.9,14.32-14.3-.73,7.56-6.76,13.59-14.32,14.3M40.65,23.43c7.55.73,13.57,6.75,14.3,14.31l-14.3-14.31Z"/>
      <path class="cls-2" d="M54.06,59.76c-.6.44-.73,1.29-.29,1.89.44.62,1.29.75,1.9.31.61-.44.75-1.29.3-1.9-.43-.6-1.3-.74-1.91-.3"/>
      <path class="cls-2" d="M59.11,58.95c.6-.44.73-1.3.29-1.9-.44-.61-1.29-.75-1.9-.31-.61.44-.74,1.29-.3,1.9.44.6,1.3.75,1.91.31"/>
      <path class="cls-2" d="M50.13,62.1c-.62.45-.74,1.29-.3,1.9.44.6,1.29.75,1.91.3.61-.44.74-1.3.3-1.91-.44-.61-1.3-.74-1.9-.3"/>
      <path class="cls-2" d="M22.2,60.09c-.45.61-.31,1.46.29,1.89.61.44,1.46.31,1.91-.3.44-.6.3-1.46-.31-1.91-.6-.44-1.45-.29-1.89.31"/>
      <path class="cls-2" d="M26.12,62.42c-.44.6-.31,1.46.29,1.91.6.44,1.46.29,1.9-.31.44-.61.31-1.46-.29-1.9-.61-.44-1.46-.3-1.89.3"/>
      <path class="cls-2" d="M18.76,57.07c-.44.61-.32,1.46.3,1.91.6.44,1.47.29,1.91-.3.44-.61.31-1.47-.3-1.91-.62-.45-1.46-.31-1.9.3"/>
      <path class="cls-2" d="M13.92,29.57c-.72-.23-1.47.15-1.69.85-.22.71.15,1.49.85,1.72.7.23,1.48-.17,1.71-.88.23-.71-.17-1.46-.88-1.69"/>
      <path class="cls-2" d="M12.9,34c-.69-.23-1.46.16-1.69.88-.23.72.18,1.49.88,1.72.69.23,1.46-.16,1.69-.87.23-.72-.16-1.5-.88-1.74"/>
      <path class="cls-2" d="M15.72,25.35c-.71-.23-1.49.15-1.72.87-.23.71.17,1.49.88,1.72.72.23,1.49-.16,1.72-.87.23-.72-.16-1.48-.88-1.71"/>
      <path class="cls-2" d="M39.77,59.97c.03-.52.06-1.03.09-1.55h-1.6c.03.53.07,1.05.1,1.58-1.34.3-2.6,1.33-3.44,2.69-.99,1.62-1.29,5.01-1.29,5.01l.36.02s.64-2.72,1.68-4.3c.85-1.32,1.73-1.84,2.77-1.99.29,5.01.49,9.3.49,9.3h.44s.07-4.3.32-9.32c1.06.12,1.98.64,2.86,2,1.04,1.58,1.66,4.3,1.66,4.3l.38-.02s-.28-3.39-1.28-5.01c-.87-1.39-2.18-2.45-3.54-2.71"/>
      <path class="cls-2" d="M57.09,45.98c.51.13,1.02.27,1.53.4-.13,1.37.46,2.88,1.48,4.1,1.22,1.45,4.36,2.77,4.36,2.77l.13-.33s-2.39-1.45-3.57-2.93c-.98-1.21-1.2-2.22-1.02-3.25,4.84,1.27,8.99,2.41,8.99,2.41l.14-.42s-4.08-1.39-8.77-3.18c.45-.97,1.23-1.69,2.79-2.1,1.83-.5,4.6-.24,4.6-.24l.1-.37s-3.32-.78-5.16-.33c-1.59.4-2.99,1.31-3.66,2.53-.48-.19-.96-.37-1.45-.57l-.49,1.52Z"/>
      <path class="cls-2" d="M77.81,33.18l.33-.59s-5.03-3.36-6.08-4.01c.44-1.18,2.51-6.93,2.51-6.93l-.61-.28c-.18-.07-3.81-1.69-8.38-1.15.34-1.06.92-3.21.82-5.39,0,0-4.43.15-5.32.14-.02-.87-.52-5.38-.52-5.38,0,0-4.42.95-5.38,1.11-.29-.85-1.41-5.02-1.41-5.02,0,0-2.51.84-4.79,2.47-.89-4.54-3.56-7.51-3.69-7.66l-.45-.5s-4.77,3.74-5.71,4.54C38.16,3.75,33.32,0,33.32,0l-.45.49c-.13.16-2.81,3.14-3.7,7.68-.88-.64-2.78-1.89-4.92-2.48,0,0-1.22,4.25-1.51,5.1-.95-.13-5.28-1.16-5.28-1.16,0,0-.47,4.52-.61,5.48-.89,0-5.18-.21-5.18-.21,0,0,.02,2.64.85,5.32-4.55-.54-8.17,1.07-8.36,1.15l-.61.28s2.08,5.68,2.55,6.83c-1.05.69-6.11,4.11-6.11,4.11l.33.58c.11.17,2.13,3.69,6.21,5.93-.92.67-2.61,2.06-3.78,3.85,0,0,3.67,2.48,4.38,3.01-.49.72-2.74,4.66-2.74,4.66,0,0,4.15,1.85,5.02,2.28-.26.85-1.81,4.89-1.81,4.89,0,0,2.53.79,5.31.82-1.9,4.18-1.49,8.14-1.47,8.34l.07.67s6.02-.22,7.25-.31c.34,1.21,2.04,7.09,2.04,7.09l.65-.13c.19-.05,4.03-.87,7.38-3.94.37,1.09,1.16,3.09,2.47,4.73,0,0,3.49-2.72,4.22-3.23.53.69,3.59,4.05,3.59,4.05,0,0,3.03-3.38,3.72-4.07.73.51,4.08,3.23,4.08,3.23,0,0,1.54-2.16,2.43-4.82,3.39,3.14,7.3,3.98,7.49,4.03l.66.13s1.66-5.83,1.95-7.03c1.23.05,7.35.25,7.35.25l.08-.66c0-.2.42-4.13-1.49-8.3,1.12,0,3.34-.12,5.39-.89,0,0-1.51-4.16-1.78-5.01.82-.29,4.96-2.16,4.96-2.16,0,0-2.28-3.93-2.73-4.8.71-.53,4.34-2.88,4.34-2.88,0,0-1.58-2.13-3.84-3.8,4.01-2.25,5.99-5.7,6.09-5.87M68.6,39.02c-5.2,1.7-9.01.51-9.26.43h-.01s-.42,1.21-.42,1.21c.16.05,4.3,1.47,10.11-.42.47-.15.91-.33,1.34-.52,1.54,1.11,2.56,2.12,3.31,2.93-.81.6-4.18,2.77-4.18,2.77,0,0,1.99,3.46,2.63,4.52-1.16.52-4.72,1.99-4.72,1.99,0,0,1.42,3.86,1.72,4.82,0,0-1.97.54-4.44.48-.24-.41-.49-.81-.78-1.21-3.58-4.94-7.75-6.25-7.92-6.28l-.38,1.22s3.97,1.24,7.26,5.81c2.46,3.38,2.79,7.24,2.79,9.01,0,.11,0,.24,0,.33.02,0-7.2-.23-7.2-.23,0,0-1.63,5.72-1.93,6.89-1.52-.46-5.45-1.91-8.06-5.52-3.22-4.42-3.28-8.43-3.28-8.7h0s-1.29-.04-1.29-.04c0,.18-.06,4.56,3.53,9.5.28.38.57.74.87,1.07-.57,1.81-1.22,3.09-1.76,4.05-.82-.58-3.93-3.12-3.93-3.12,0,0-2.67,2.96-3.48,3.9-.85-.94-3.35-3.87-3.35-3.87,0,0-3.23,2.54-4.05,3.12,0,0-1.08-1.65-1.8-3.95.33-.37.65-.75.96-1.17,3.59-4.94,3.54-9.32,3.52-9.49l-1.28.02s.04,4.16-3.28,8.71c-2.45,3.39-6,4.89-7.7,5.44-.11.03-.22.07-.31.1,0,.02-2.01-6.94-2.01-6.94,0,0-5.95.22-7.15.29-.04-1.59.13-5.76,2.76-9.37,3.21-4.43,7.01-5.72,7.26-5.8h0s-.37-1.23-.37-1.23c-.17.05-4.36,1.35-7.95,6.29-.29.39-.54.79-.77,1.19-1.87.01-3.29-.21-4.36-.43.3-.96,1.76-4.7,1.76-4.7,0,0-3.64-1.63-4.78-2.11.63-1.1,2.64-4.38,2.64-4.38,0,0-3.41-2.29-4.22-2.89,0,0,1.26-1.57,3.27-2.97.39.17.79.33,1.22.46,5.77,1.89,9.92.48,10.08.41l-.42-1.21s-3.94,1.33-9.27-.42c-3.98-1.29-6.51-4.24-7.55-5.68-.06-.09-.14-.19-.19-.27-.02.01,5.98-4.04,5.98-4.04,0,0-2.04-5.59-2.49-6.71,1.5-.52,5.52-1.65,9.72-.26,5.21,1.68,7.61,4.89,7.76,5.11h0s1.06-.72,1.06-.72c-.1-.14-2.63-3.72-8.44-5.61-.46-.15-.92-.26-1.37-.36-.59-1.79-.84-3.22-.96-4.3,1.01-.01,5.01.21,5.01.21,0,0,.42-3.97.52-5.2,1.24.26,4.98,1.16,4.98,1.16,0,0,1.12-3.95,1.45-4.91,0,0,1.94.73,3.92,2.27-.04.44-.07.88-.07,1.34,0,6.1,2.62,9.62,2.73,9.75l1.02-.77s-2.48-3.34-2.47-8.97c0-4.18,2-7.49,3.04-8.93.07-.09.14-.19.19-.26-.02-.01,5.71,4.44,5.71,4.44,0,0,4.68-3.67,5.61-4.44.96,1.26,3.28,4.74,3.27,9.2,0,5.47-2.31,8.74-2.46,8.96h0s1.02.79,1.02.79c.11-.14,2.73-3.65,2.74-9.76,0-.47-.03-.93-.07-1.38,1.52-1.12,2.8-1.78,3.8-2.23-.02-.05,1.34,4.83,1.34,4.83,0,0,3.91-.82,5.11-1.11.14,1.26.43,5.1.43,5.1,0,0,4.09-.16,5.1-.14,0,0-.09,2.04-.91,4.37-.45.1-.91.22-1.38.37-5.79,1.88-8.33,5.46-8.42,5.6l1.05.73s2.41-3.39,7.76-5.12c3.97-1.3,7.74-.41,9.43.13.1.04.23.07.31.1,0-.02-2.45,6.79-2.45,6.79,0,0,4.94,3.31,5.96,3.95-.9,1.3-3.5,4.61-7.74,5.97"/>
      <path class="cls-2" d="M49.75,23.23l1.29.94c.28-.45.57-.89.85-1.33,1.26.54,2.89.45,4.37-.15,1.75-.72,3.97-3.3,3.97-3.3l-.26-.23s-2.12,1.82-3.89,2.49c-1.46.57-2.49.47-3.41-.02,2.72-4.22,5.08-7.82,5.08-7.82l-.36-.26s-2.59,3.44-5.74,7.36c-.79-.73-1.23-1.69-1.13-3.3.09-1.89,1.19-4.45,1.19-4.45l-.33-.21s-1.76,2.91-1.91,4.8c-.11,1.64.32,3.26,1.27,4.28-.33.4-.66.8-.99,1.2"/>
      <path class="cls-2" d="M26.3,22.84c.27.43.55.86.83,1.3l1.29-.93c-.34-.41-.67-.81-1.01-1.22.91-1.03,1.32-2.6,1.2-4.2-.15-1.89-1.9-4.81-1.9-4.81l-.3.19s1.08,2.58,1.16,4.47c.09,1.56-.32,2.51-1.07,3.24-3.17-3.88-5.85-7.24-5.85-7.24l-.36.26s2.48,3.52,5.22,7.73c-.94.52-1.98.64-3.49.06-1.78-.66-3.87-2.51-3.87-2.51l-.3.25s2.22,2.57,3.98,3.3c1.52.61,3.2.7,4.46.12"/>
      <path class="cls-2" d="M20.67,44.39c-.49.2-.98.39-1.47.58-.69-1.18-2.07-2.06-3.62-2.45-1.84-.44-5.13.33-5.13.33l.09.35s2.75-.23,4.58.27c1.52.39,2.29,1.08,2.75,2.02-4.68,1.82-8.67,3.34-8.67,3.34l.14.42s4.08-1.27,8.93-2.58c.21,1.05,0,2.09-1.02,3.34-1.18,1.48-3.58,2.9-3.58,2.9l.14.36s3.14-1.32,4.37-2.77c1.05-1.26,1.66-2.83,1.49-4.21.5-.13,1-.26,1.51-.39l-.49-1.52Z"/>
      <path class="cls-1" d="M89.49,16.78v11.75c0,3.83-.04,10.73-.15,14.04-.04,1.13-.08,2.29-.08,2.87,0,.76.37,1.22.99,1.22.69,0,1.64-1.19,1.64-1.87v-1.65h15.51v2.63c0,.52.09,1.22.83,1.22.67,0,1.79-.95,1.79-1.67,0-1.56-.12-7.28-.23-11.71-.04-1.84-.04-12.53-.04-17.12.58-.49,1.19-1.04,1.19-1.43,0-.16-.14-.34-.45-.59-.5-.41-1.31-1.03-1.88-1.43-.29-.22-.45-.3-.62-.3-.18,0-.39.14-.59.39l-.86,1.04h-14.12c-.08-.16-.27-.27-.36-.32-.86-.52-1.8-1.04-2.87-1.6l-.13-.07.03.14c.24,1.07.38,2.7.38,4.45M107.39,41.9h-15.51v-13.01h15.51v13.01ZM91.88,15.42h15.51v12.23h-15.51v-12.23Z"/>
      <path class="cls-1" d="M137.31,40.69c-.04-.73-.11-2.66-.11-3.91h6.78c.28,0,.38-.15.38-.3,0-.12-.07-.25-.21-.39l-1.83-1.72c-.14-.14-.27-.21-.39-.21-.18,0-.31.13-.39.21l-1.28,1.24h-3.08v-14.31c.51.67,1.01,1.46,1.44,2.28,3.7,6.94,7.17,11.77,10.31,14.33.19.16.85.67,1.27.67.49,0,.74-.25,1.01-.52.24-.24.51-.29.98-.29,1.22,0,2.47-.08,3.04-1.03l.05-.08-.09-.02c-5.64-1.46-10.49-5.67-15.72-13.67-.34-.54-1.02-1.55-1.82-2.46h14.35c.18,0,.38-.13.38-.34,0-.14-.06-.24-.22-.36l-.08-.05c-.94-.64-1.75-1.19-2.75-1.82-.45-.3-.55-.36-.73-.36s-.35.17-.43.25l-1.55,1.51h-9.43c0-1.81,0-3.26.08-4.83.45-.38.92-.94.92-1.37,0-.32-.24-.45-.59-.6-1.78-.71-2.92-1.13-3.41-1.26l-.14-.04.05.13c.37.87.79,2.2.88,3.3.07,1.36.11,3.04.15,4.67h-11.26c-1.2,0-2.33,0-3.62-.27l-.12-.03.04.12c.47,1.23,1.47,1.73,2.03,1.92h.03s.03,0,.03,0c.66-.51,2.01-.56,2.56-.56h8.66c-1.04,2.79-5.08,11.85-15.16,17.51l-.06.03.25.5.06-.02c7.32-2.92,13.33-8.87,16.55-16.37v13.44h-3.72c-1.2,0-2.33,0-3.62-.27l-.12-.03.04.12c.47,1.23,1.48,1.73,2.03,1.92h.04s.03-.01.03-.01c.66-.5,2.01-.56,2.56-.56h2.76c0,.55-.04,2.42-.11,3.98-.03.65-.19,4.05-.19,4.63,0,.68.34,1.37.99,1.37.79,0,1.64-1.19,1.64-2.02,0-.73-.07-2.72-.11-3.91v-.15Z"/>
      <path class="cls-1" d="M161.55,22.81h.04s.03-.01.03-.01c.66-.5,2.01-.56,2.56-.56h7.05c-.46,1.16-.91,2.25-1.3,3.16-1.27,2.98-2.75,5.83-4.05,7.79-.47.71-.51.95-.51,1.19,0,.47.31.76.8.76.59,0,1.28-.08,1.89-1.03.13-.2.32-.49.47-.79,3.05,1.04,5.43,2.02,7.47,3.07-3.93,4.59-9.19,7.57-15.63,8.87l-.08.02.2.51h.05c7.4-.64,13.09-3.38,17.38-8.37,3.17,1.81,6.05,4.08,9.31,7.35.49.49.87.71,1.24.71.59,0,1.03-.64,1.03-1.52,0-.99-.61-1.73-2.59-3.2-2.62-1.9-5.21-3.43-7.93-4.68,2.26-3,4.06-6.78,5.5-11.55.51-.17,1.31-.52,1.31-.97,0-.19-.17-.32-.53-.52-.46-.26-1.01-.53-1.56-.79h9.98c.23,0,.41-.19.41-.34s-.06-.24-.22-.36c-.87-.65-1.94-1.38-2.8-1.92l-.04-.03c-.28-.18-.4-.25-.57-.25-.14,0-.24.05-.43.25l-1.36,1.47h-14.72c1.11-2.96,1.96-5.52,2.37-6.81.43-.2,1.08-.66,1.08-1.08,0-.31-.3-.48-.65-.67-.5-.26-1.53-.79-2.8-1.34l-.12-.05.03.13c.15.72.15,1.09.15,1.82,0,1.68-1.25,5.27-2.31,8.01h-8.49c-1.2,0-2.33,0-3.62-.27l-.12-.02.05.12c.5,1.29,1.59,1.77,2.03,1.92M168.88,32.72c1.3-2.36,3.01-6.27,4.61-10.48h8.7c.03.17.03.33.03.54,0,.38-.06.86-.15,1.29-.99,4.14-2.76,8-5.12,11.14-2.6-1.03-5.31-1.87-8.06-2.49"/>
      <path class="cls-1" d="M216.18,32.77c-.04-1.22-.07-3.2-.08-3.79h15.77c.23,0,.41-.18.41-.34,0-.14-.06-.24-.22-.36-.87-.65-1.94-1.38-2.8-1.92l-.04-.03c-.28-.18-.4-.25-.57-.25-.14,0-.23.05-.43.25l-1.36,1.47h-10.81c-.04-1.54-.07-3.6-.07-4.1.33-.18.88-.63.88-1.04,0-.25-.16-.43-.5-.56-.13-.05-.25-.1-.36-.14,3.1-1.73,5.58-3.53,7.79-5.66.97-.11,1.99-.27,1.99-.72,0-.19-.11-.33-.37-.58-.53-.53-1.37-1.14-2.04-1.61-.3-.22-.46-.24-.58-.24-.19,0-.33.11-.43.21l-1.09,1.09h-14.67c-1.2,0-2.33,0-3.62-.27l-.12-.03.04.12c.43,1.13,1.34,1.65,2.03,1.88h.04s.03,0,.03,0c.45-.35,1.31-.52,2.56-.52h13.56c-1.71,2.23-3.7,4.28-5.92,6.09-.64-.22-1.34-.45-1.96-.64l-.13-.04.05.13c.35.94.54,1.73.61,2.43.08.69.12,2.55.15,4.21h-12.71c-1.2,0-2.33,0-3.62-.27l-.12-.03.05.12c.51,1.29,1.59,1.77,2.03,1.92h.03s.03,0,.03,0c.66-.51,2.01-.56,2.56-.56h11.8c.04,1.47.04,2.85.04,3.68,0,2.5,0,5.09-.23,7.3-.18,1.74-1.05,2.77-2.34,2.77-1.38,0-4-1-5.28-1.71l-.06-.04-.24.44.02.03c.82,1.41,2.42,2.52,3.29,2.86,1.25.48,2.19,1.09,2.8,1.82l.04.04.05-.02c2.68-1.29,4.21-3.41,4.21-5.8,0-1.38,0-3.94-.08-7.58"/>
      <path class="cls-1" d="M264.98,45.85c.28,0,.48-.08.84-.32.64-.41,1-.45,1.88-.45,1.25,0,2.3-.47,2.89-1.29l.06-.09-.11-.02c-6.93-1.29-12.97-7.46-17.02-17.37-.36-.91-.73-1.59-1.23-2.24h16.74c.22,0,.41-.17.41-.38,0-.15-.06-.24-.22-.36-.85-.65-2.16-1.5-3.03-2.03-.31-.19-.47-.28-.65-.28-.18,0-.32.1-.47.25l-1.47,1.62h-11.53c.2-3.09.34-5.51.38-7.97.56-.4,1.19-.85,1.19-1.34,0-.17-.15-.35-.42-.48-1.28-.64-2.34-1.04-3.49-1.46l-.13-.05.04.13c.21.68.41,1.79.49,2.78.04.34.04.71.04,1.45,0,2.35-.1,4.68-.3,6.94h-10.73c-1.2,0-2.33,0-3.62-.27l-.12-.03.05.12c.5,1.29,1.59,1.77,2.03,1.91h.03s.03,0,.03,0c.66-.51,2.01-.56,2.56-.56h9.68c-.66,6.66-3.73,15.7-14.54,21.15l-.06.03.24.58.06-.02c4.96-1.86,8.69-4.42,11.4-7.82,2.75-3.44,4.38-7.64,4.99-12.85.38.68.72,1.46,1.04,2.37,2.51,7.27,6.53,13.86,10.77,17.63.54.46.98.71,1.27.71"/>
      <path class="cls-1" d="M277.22,26.79c2.22,0,3.39-3.22,3.55-6.24h24.13c-.63,1.4-1.56,2.81-2.82,4.32l-.04.05.34.39.05-.03c1.89-1.09,3.69-2.53,4.82-3.86.75-.07,1.6-.23,1.6-.71,0-.14-.13-.27-.29-.43-.7-.7-1.49-1.41-2.19-1.96-.15-.12-.25-.17-.39-.17s-.23.05-.47.25l-1.09.98h-7.49c2.11-1.55,3.92-3.4,5-5.11.4-.06,1.67-.35,1.67-.83,0-.14-.05-.24-.18-.32-1.17-.8-2.31-1.45-3.3-1.99l-.1-.05v.12c0,.64-.12,1.38-.3,1.85-.69,1.77-2.44,4.61-3.91,6.35h-15.06c-.04-.61-.12-1.21-.19-1.74v-.05s-.59-.05-.59-.05v.07c-.11,2.44-.9,4.14-2.66,5.69-.55.48-1.06,1.07-1.06,2.16,0,.9.31,1.33.95,1.33"/>
      <path class="cls-1" d="M291.16,16.83c.12.59.47,1.58,1.41,1.58.74,0,1.26-.83,1.26-2.02,0-1.39-1.89-3.23-5.05-4.92l-.05-.03-.3.4.04.04c1.32,1.46,2.43,3.49,2.7,4.94"/>
      <path class="cls-1" d="M284.24,17.1c.35,1,.86,1.58,1.41,1.58.6,0,1.25-.53,1.25-1.68,0-2.11-2.76-3.61-5.59-4.96l-.06-.03-.25.45.05.04c1.79,1.42,2.87,3.63,3.19,4.6"/>
      <path class="cls-1" d="M308.95,33.48c-.79-.6-1.59-1.18-2.37-1.73l-.07-.05c-.26-.19-.42-.3-.62-.3-.18,0-.31.13-.39.21l-1.43,1.4h-10.73l-.04-1.58c.46-.28.99-.68.99-1.03,0-.04-.02-.09-.04-.13,1.97-1.07,4.02-2.39,5.62-3.63.76,0,1.5-.04,1.5-.41,0-.17-.04-.26-.17-.39-.68-.68-1.38-1.38-2.15-1.99-.21-.17-.33-.25-.46-.25-.11,0-.2.05-.43.25l-1.05.9h-10.69c-1.2,0-2.33,0-3.62-.27l-.12-.03.05.12c.51,1.29,1.59,1.77,2.03,1.92h.04s.03-.01.03-.01c.66-.5,2.01-.56,2.56-.56h10.12c-.96,1.33-2.34,2.74-3.9,3.99-.76-.23-1.89-.57-2.84-.79l-.13-.03.05.13c.23.54.49,1.59.49,2.19v1.62h-12.06c-1.2,0-2.33,0-3.62-.27l-.12-.02.05.12c.47,1.23,1.47,1.73,2.03,1.92h.04s.03-.01.03-.01c.66-.5,2.01-.56,2.56-.56h11.11v7.09c0,1.33-.18,1.96-1.81,1.96-1.33,0-3.56-.67-5.18-1.33l-.06-.02-.25.44.03.04c1.21,1.32,2.8,2.18,3.93,2.66.88.38,1.56.88,2.12,1.55l.04.04.05-.03c2.5-1.47,3.44-2.31,3.44-5.3,0-.38,0-.8-.04-2.11l-.11-4.98h15.5c.22,0,.38-.14.38-.34,0-.16-.11-.25-.26-.36"/>
      <path class="cls-1" d="M104.17,67.28c-.16-.13-.28-.32-.38-.56l-.43-1.09-3.17-8.28v-.04h-.37l-2.77,7.27c-.2.52-.31.82-.34.89-.29.8-.53,1.34-.73,1.59-.2.24-.5.4-.9.47h-.05v.47h2.93v-.47h-.06c-.29,0-.52-.08-.71-.23-.18-.15-.27-.37-.27-.67,0-.28.18-.91.54-1.86l.23-.62h3.52l.71,1.89c.26.69.32.92.32.99,0,.2-.07.32-.21.39-.15.07-.46.11-.9.11h-.06v.47h3.84v-.46h-.05c-.32-.04-.56-.12-.71-.26M97.89,63.69l1.59-4.22,1.59,4.22h-3.18Z"/>
      <path class="cls-1" d="M113.23,60.2c0-.67-.17-1.23-.52-1.67-.34-.44-.79-.75-1.33-.92-.53-.17-1.3-.26-2.28-.26-.53,0-1.28.02-2.23.05l-1.24.05v.47h.23c.46,0,.77.04.9.13.13.08.22.24.25.46.04.24.06.77.06,1.6v5.11c0,.87-.02,1.42-.06,1.66-.04.22-.13.39-.27.49-.15.11-.42.16-.81.16h-.31v.47h4.46v-.47h-.37c-.41,0-.69-.06-.83-.17-.14-.11-.23-.29-.26-.53-.03-.25-.05-.79-.05-1.6v-2.13h.98c1.09,0,1.86-.12,2.3-.35.44-.23.78-.57,1.02-1.02.23-.44.35-.96.35-1.54M111.3,61.68c-.22.37-.49.62-.81.73-.33.12-.77.18-1.3.18h-.62v-4.72c.16-.02.39-.02.67-.02.84,0,1.46.2,1.83.59.37.39.56,1.01.56,1.86,0,.55-.11,1.02-.33,1.39"/>
      <path class="cls-1" d="M121.99,67.28c-.16-.13-.28-.32-.38-.56l-.43-1.09-3.17-8.28v-.04h-.37l-2.77,7.27c-.2.52-.31.82-.34.89-.29.8-.53,1.34-.73,1.59-.2.24-.5.4-.9.47h-.05v.47h2.93v-.47h-.06c-.29,0-.52-.08-.71-.23-.18-.15-.27-.37-.27-.67,0-.28.18-.91.54-1.86l.23-.62h3.52l.71,1.89c.26.69.32.92.32.99,0,.2-.07.32-.21.39-.15.07-.46.11-.9.11h-.06v.47h3.84v-.46h-.05c-.32-.04-.56-.12-.71-.26M115.71,63.69l1.59-4.22,1.59,4.22h-3.18Z"/>
      <path class="cls-1" d="M130.21,57.93h.06c.36,0,.68.05.94.16.25.1.42.24.5.41.08.18.12.49.12.95v6.05l-5.51-8.01-.02-.02h-2.88v.47h.06c.5,0,.82.04.96.11.13.07.23.23.29.48.07.27.1.8.1,1.59v5.53c0,.62-.02,1.02-.06,1.19-.04.15-.17.3-.4.44-.23.14-.57.23-1.01.27h-.05v.47h3.65v-.47h-.06c-.49,0-.86-.08-1.1-.23-.24-.15-.38-.31-.43-.49-.05-.18-.08-.58-.08-1.17v-7.05l6.6,9.62.02.03h.39v-8.69c0-.44.03-.75.09-.93.06-.17.2-.32.41-.45.22-.13.53-.21.92-.25h.05v-.47h-3.56v.47Z"/>
      <path class="cls-1" d="M153.16,57.46h-2.7v.47h.06c.62,0,.93.31.93.96,0,.22-.1.71-.29,1.46l-1.4,5.35-2.74-8.23h-.48l-2.43,8.22-1.64-5.88c-.19-.69-.29-1.12-.29-1.29,0-.17.05-.3.16-.4.11-.1.38-.16.79-.19h.05v-.47h-3.67v.47h.06c.33.02.56.08.7.19.14.11.25.28.34.51.09.24.24.73.44,1.47l2.29,8.12v.04h.43l2.48-8.46,2.83,8.42v.04h.41l2.1-7.89c.28-1.05.52-1.72.7-1.99.18-.27.44-.41.81-.44h.05v-.47Z"/>
      <path class="cls-1" d="M158.3,57.27c-1.47,0-2.72.5-3.71,1.48-.98.98-1.48,2.3-1.48,3.92s.49,3.01,1.46,4.02c.97,1.01,2.23,1.52,3.75,1.52s2.83-.51,3.79-1.52c.95-1.01,1.44-2.34,1.44-3.96s-.51-3.02-1.5-3.99c-1-.97-2.26-1.46-3.74-1.46M160.9,66.45c-.6.82-1.44,1.24-2.48,1.24-1.19,0-2.1-.42-2.69-1.24-.6-.82-.9-2.08-.9-3.74s.3-2.88.9-3.71c.59-.82,1.46-1.24,2.58-1.24s2.01.43,2.61,1.27c.6.85.91,2.09.91,3.69s-.31,2.9-.92,3.72"/>
      <path class="cls-1" d="M170.49,65.99l-3.42-8.49v-.04h-3v.47h.32c.47,0,.77.04.9.13.13.08.21.24.25.46.04.23.06.77.06,1.6v4.54c0,.85-.03,1.45-.08,1.76-.05.3-.2.56-.45.77-.24.21-.56.33-.95.35h-.05v.47h3.51v-.47h-.05c-.42-.03-.75-.16-.99-.37-.23-.22-.37-.47-.41-.76-.05-.3-.07-.87-.07-1.7v-5.81l3.67,9.07.02.04h.41l3.66-9.11v6.34c0,.86-.02,1.42-.07,1.65-.04.22-.13.39-.28.49-.15.11-.42.16-.8.16h-.39v.47h4.65v-.47h-.48c-.41,0-.69-.06-.83-.17-.14-.11-.23-.29-.26-.53-.04-.25-.06-.79-.06-1.6v-5.11c0-.86.02-1.41.07-1.63.04-.21.13-.36.26-.44.13-.08.43-.12.89-.12h.41v-.47h-3.01l-3.41,8.53Z"/>
      <path class="cls-1" d="M185.46,64.68c-.17.76-.4,1.36-.68,1.79-.29.43-.59.71-.89.85-.31.14-.72.21-1.21.21h-.71c-.61,0-.99-.1-1.12-.3-.14-.2-.21-.93-.21-2.15v-2.41h.98c.4,0,.68.03.84.09.16.05.27.17.35.35.09.19.13.57.13,1.14v.06h.44v-3.69h-.44v.06c0,.5-.03.84-.09,1.01-.05.16-.16.28-.33.36-.18.08-.49.12-.94.12h-.95v-4.26h1.26c.65,0,1.13.04,1.42.12.28.08.53.26.74.55.21.3.39.81.54,1.53v.05h.45l-.23-2.66v-.05h-6.89v.47h.06c.44,0,.73.05.87.14.13.09.21.25.25.49.04.25.06.77.06,1.56v5.11c0,.86-.02,1.41-.06,1.62-.04.2-.12.37-.25.5-.13.13-.42.19-.87.19h-.25v.47h7.96l.21-3.3v-.06s-.44,0-.44,0v.04Z"/>
      <path class="cls-1" d="M193.61,57.93h.06c.36,0,.68.05.94.16.25.1.42.24.5.41.08.18.12.49.12.95v6.05l-5.51-8.01-.02-.02h-2.88v.47h.06c.5,0,.82.04.96.11.13.07.23.23.29.48.07.27.1.8.1,1.59v5.53c0,.62-.02,1.02-.06,1.19-.04.15-.17.3-.4.44-.23.14-.57.23-1.01.27h-.05v.47h3.65v-.47h-.06c-.49,0-.86-.08-1.1-.23-.24-.15-.38-.31-.43-.49-.05-.18-.08-.58-.08-1.17v-7.05l6.6,9.62.02.03h.39v-8.69c0-.44.03-.75.09-.93.06-.17.2-.32.41-.45.22-.13.54-.21.93-.25h.05v-.47h-3.55v.47Z"/>
      <path class="cls-1" d="M199.12,57.46c-.24,0-.43.08-.58.25-.15.17-.22.36-.22.57s.07.41.22.58c.15.17.34.26.59.26.09,0,.18-.02.29-.06.05-.01.09-.02.12-.02.05,0,.2,0,.2.43,0,.89-.43,1.42-1.31,1.61h-.04v.54l.07-.02c.58-.12,1.04-.41,1.35-.83.32-.43.48-.95.48-1.55,0-.53-.12-.96-.34-1.27-.23-.32-.51-.48-.83-.48"/>
      <path class="cls-1" d="M207.01,62.57c-.37-.24-.97-.57-1.79-.97-.84-.42-1.43-.79-1.75-1.13-.32-.32-.48-.72-.48-1.18,0-.38.13-.74.38-1.07.25-.32.65-.48,1.19-.48.57,0,1.09.23,1.52.67.44.45.75,1.07.92,1.85v.04h.42v-2.85h-.42v.05c-.03.29-.13.57-.31.83-.36-.43-.72-.71-1.06-.85-.36-.15-.75-.22-1.16-.22-.73,0-1.34.26-1.82.76-.48.5-.72,1.14-.72,1.9,0,.49.11.96.33,1.4.22.44.53.8.92,1.07.38.27.97.59,1.73.95.84.39,1.43.77,1.74,1.11.31.34.47.77.47,1.28s-.18.96-.54,1.37c-.35.4-.86.61-1.5.61-1.44,0-2.37-1.09-2.76-3.23v-.05h-.47v3.47h.46v-.05c.07-.38.17-.7.3-.92.69.84,1.57,1.27,2.59,1.27.92,0,1.66-.29,2.21-.86.55-.57.83-1.31.83-2.22,0-.57-.11-1.08-.34-1.52-.23-.44-.53-.79-.91-1.03"/>
      <path class="cls-1" d="M222.39,57.92h.05c.42.03.73.12.92.25.19.13.31.3.37.53.06.23.09.64.09,1.22v3.55c0,.8-.03,1.4-.08,1.77-.05.37-.19.73-.41,1.08-.22.35-.57.64-1.03.87-.46.23-.98.35-1.55.35-.72,0-1.3-.18-1.73-.52s-.69-.75-.79-1.22c-.1-.47-.14-1.28-.14-2.41v-3.29c0-.86.02-1.41.07-1.63.04-.21.13-.36.26-.43.14-.08.43-.12.89-.12h.25v-.47h-4.44v.47h.27c.47,0,.77.04.9.13.13.08.21.24.25.46.04.24.07.77.07,1.6v4.31c0,.85.12,1.53.37,2.04.25.51.68.93,1.28,1.25.59.32,1.32.48,2.17.48.72,0,1.36-.13,1.91-.37.55-.25.99-.59,1.29-1.01.31-.42.49-.86.56-1.29.06-.43.09-1.1.09-1.98v-3.47c0-.63.02-1.05.07-1.27.04-.21.17-.4.36-.56.2-.17.5-.27.91-.3h.05v-.47h-3.28v.46Z"/>
      <path class="cls-1" d="M232.95,57.93h.06c.36,0,.68.05.93.16.25.1.42.24.5.41.08.18.12.49.12.95v6.05l-5.51-8.01-.02-.02h-2.88v.47h.06c.5,0,.82.04.96.11.13.07.23.23.29.48.07.27.1.8.1,1.59v5.53c0,.62-.02,1.02-.06,1.19-.04.15-.17.3-.4.44-.23.14-.57.23-1.01.27h-.05v.47h3.65v-.47h-.06c-.49,0-.86-.08-1.1-.23-.24-.15-.38-.31-.43-.49-.05-.18-.08-.58-.08-1.17v-7.05l6.6,9.62.02.03h.39v-8.69c0-.44.03-.75.09-.93.06-.17.2-.32.41-.45.22-.13.53-.21.92-.25h.05v-.47h-3.56v.47Z"/>
      <path class="cls-1" d="M237.33,57.93h.26c.47,0,.77.04.91.13.13.08.22.24.25.46.04.24.06.77.06,1.6v5.12c0,.86-.02,1.42-.06,1.65-.04.22-.13.39-.27.49-.15.11-.42.16-.81.16h-.34v.47h4.45v-.47h-.34c-.41,0-.69-.06-.83-.17-.14-.11-.23-.29-.26-.53-.04-.25-.05-.79-.05-1.6v-5.12c0-.86.02-1.41.07-1.63.05-.21.13-.36.26-.44.13-.08.43-.12.89-.12h.26v-.47h-4.45v.47Z"/>
      <path class="cls-1" d="M249.94,57.93h.06c.73.02,1.08.3,1.08.86,0,.28-.18.91-.55,1.86l-2.13,5.62-2.67-6.78c-.22-.54-.33-.88-.33-1.03,0-.21.08-.34.23-.42.17-.08.5-.12,1-.12h.06v-.47h-4.2v.47h.06c.43.01.75.1.94.26.19.16.38.49.56.97.13.36.23.62.29.77l3.29,8.33h.51l2.83-7.4.64-1.64c.16-.42.35-.73.57-.95.21-.21.46-.32.74-.33h.06v-.47h-3.01v.47Z"/>
      <path class="cls-1" d="M261.3,64.68c-.17.76-.39,1.36-.68,1.79-.28.43-.58.71-.89.85-.31.14-.72.21-1.21.21h-.71c-.61,0-.99-.1-1.12-.3-.14-.2-.21-.93-.21-2.15v-2.41h.98c.4,0,.68.03.84.09.16.05.27.17.35.35.08.19.13.57.13,1.14v.06h.45v-3.69h-.45v.06c0,.5-.03.84-.08,1.01-.05.16-.16.28-.33.36-.17.08-.49.12-.94.12h-.95v-4.26h1.26c.65,0,1.13.04,1.42.12.29.08.53.26.74.55.21.3.39.81.54,1.53v.05h.45l-.23-2.66v-.05h-6.89v.47h.06c.44,0,.73.05.87.14.13.09.21.25.25.49.04.25.06.77.06,1.56v5.11c0,.86-.02,1.41-.06,1.62-.04.2-.12.37-.25.5-.12.13-.42.19-.87.19h-.25v.47h7.96l.21-3.3v-.06s-.44,0-.44,0v.04Z"/>
      <path class="cls-1" d="M271.44,67.02c-.4-.32-.97-1.02-1.68-2.07-.8-1.19-1.39-1.91-1.8-2.21.82-.13,1.46-.43,1.89-.89.46-.49.7-1.09.7-1.79,0-.59-.18-1.11-.54-1.54-.36-.43-.83-.74-1.4-.93-.57-.19-1.32-.28-2.22-.28-.53,0-1.25.03-2.16.07l-1.41.08v.47h.22c.46,0,.77.04.91.13.13.08.21.24.25.46.04.24.06.77.06,1.6v5.11c0,.87-.02,1.42-.06,1.66-.04.22-.13.38-.27.49-.15.11-.42.16-.81.16h-.37v.47h4.65v-.47h-.51c-.41,0-.69-.06-.83-.17-.14-.11-.23-.29-.26-.53-.03-.25-.05-.79-.05-1.6v-2.26h.32c.24,0,.42.04.53.13.12.09.34.36.65.78.32.43.63.88.93,1.36.95,1.5,1.63,2.4,2.09,2.75h.02s2.63.01,2.63.01v-.47h-.06c-.54-.02-1.02-.2-1.42-.51M266.77,62.46c-.35.02-.69.04-1.02.04v-4.65c.2-.02.38-.03.54-.03,1.09,0,1.81.21,2.13.64.32.43.49,1.01.49,1.72,0,.41-.05.76-.14,1.04-.09.28-.23.5-.39.68-.16.17-.38.3-.64.39-.27.09-.59.14-.96.17"/>
      <path class="cls-1" d="M279.25,62.57c-.39-.25-1.01-.57-1.86-.97-.88-.42-1.49-.79-1.82-1.13-.33-.32-.5-.72-.5-1.18,0-.38.13-.74.4-1.07.26-.32.68-.48,1.25-.48.6,0,1.13.22,1.58.67.46.45.78,1.07.96,1.85v.05h.43v-2.85h-.43v.05c-.03.29-.14.57-.33.83-.38-.43-.75-.71-1.11-.86-.37-.14-.78-.22-1.2-.22-.76,0-1.4.26-1.89.76-.49.5-.75,1.14-.75,1.9,0,.5.12.97.35,1.4.23.44.55.8.96,1.07.4.27,1.01.59,1.8.95.88.39,1.49.77,1.81,1.11.32.34.49.77.49,1.28s-.19.96-.56,1.37c-.37.4-.9.61-1.57.61-1.5,0-2.47-1.09-2.87-3.23v-.05h-.48v3.47h.47v-.05c.08-.39.18-.7.31-.93.72.85,1.63,1.28,2.7,1.28.95,0,1.72-.29,2.3-.86.57-.57.86-1.31.86-2.22,0-.57-.12-1.08-.36-1.52-.24-.44-.55-.78-.95-1.03"/>
      <path class="cls-1" d="M281.71,57.93h.26c.47,0,.77.04.91.13.13.08.21.24.25.46.04.24.06.77.06,1.6v5.12c0,.86-.02,1.42-.06,1.65-.04.22-.13.39-.27.49-.14.11-.42.16-.81.16h-.34v.47h4.45v-.47h-.34c-.41,0-.69-.06-.83-.17-.14-.11-.23-.29-.26-.53-.03-.25-.05-.79-.05-1.6v-5.12c0-.86.02-1.41.07-1.63.05-.21.13-.36.26-.44.13-.08.43-.12.89-.12h.26v-.47h-4.45v.47Z"/>
      <path class="cls-1" d="M296.53,57.46h-9.31l-.05,2.56v.06s.43,0,.43,0v-.05c.1-.65.25-1.14.42-1.46.18-.31.36-.49.56-.55.2-.06.61-.09,1.21-.09h1.35v7.3c0,.87-.02,1.42-.06,1.66-.04.22-.13.39-.28.49-.15.1-.42.16-.81.16h-.55v.47h4.84v-.47h-.52c-.41,0-.69-.06-.83-.17-.14-.11-.23-.29-.26-.53-.04-.25-.05-.79-.05-1.6v-7.3h1.47c.51,0,.87.04,1.08.1.2.06.39.24.57.54.18.3.33.79.43,1.47v.05h.42l-.05-2.57v-.06Z"/>
      <path class="cls-1" d="M303.85,57.46v.47h.06c.4,0,.68.08.83.25.15.17.23.35.23.55,0,.23-.15.62-.46,1.17l-1.82,3.36-2.21-4.02c-.29-.52-.35-.74-.35-.83,0-.32.34-.48,1.02-.48h.06v-.47h-3.96v.47h.06c.39.01.67.1.81.25.15.16.47.68.95,1.53l2.36,4.26v1.27c0,.87-.02,1.42-.06,1.66-.04.22-.13.39-.27.49-.15.1-.42.16-.81.16h-.21v.47h4.16v-.47h-.06c-.46,0-.76-.05-.92-.14-.14-.09-.24-.25-.29-.48-.05-.24-.07-.81-.07-1.69v-1.37l2.12-3.88c.4-.74.74-1.26,1-1.54.25-.27.59-.45,1-.51h.05v-.47h-3.21Z"/>
      <path class="cls-1" d="M95.16,57.31h-4.52v.47h.28c.47,0,.77.04.9.13.13.08.21.24.25.46.04.23.06.77.06,1.6v3.39c0,1.21-.04,2.17-.11,2.65-.07.49-.29.92-.64,1.28-.35.36-.79.54-1.3.54-.25,0-.46-.04-.63-.13-.16-.08-.23-.19-.23-.33,0-.04.01-.11.07-.25.06-.14.09-.29.09-.42,0-.23-.08-.43-.22-.59-.15-.16-.33-.24-.56-.24s-.4.09-.55.27c-.15.17-.22.39-.22.64,0,.42.2.78.6,1.08.4.29.97.45,1.69.45.64,0,1.22-.12,1.71-.36.49-.24.89-.59,1.18-1.03.29-.44.47-.9.54-1.37.06-.44.09-1.24.09-2.18v-3.39c0-.86.02-1.41.07-1.63.04-.21.13-.36.26-.43.13-.08.43-.12.89-.12h.3v-.47Z"/>
    </g>
  </g>
</svg>